<svg width="1400" height="1000" viewBox="0 0 1400 1000" fill="none" xmlns="http://www.w3.org/2000/svg">
<rect width="1400" height="1000" fill="white"/>
<path d="M1287.99 477.071L1273.84 470.668C1272.32 469.983 1270.54 470.659 1269.86 472.176L1267.67 477.071C1265.66 483.04 1261.64 496.264 1261.64 501.414C1261.64 505.93 1263.19 521.292 1264.24 531.066C1264.44 532.914 1262.79 534.424 1260.97 534.047V534.047C1259.71 533.788 1258.45 534.431 1257.92 535.598C1253.35 545.727 1245.54 562.979 1244.94 564.183C1244.14 565.792 1239.91 579.875 1238.91 583.496C1237.9 587.118 1228.04 615.082 1226.83 615.484C1225.63 615.887 1195.85 602.206 1193.84 601.401C1191.83 600.597 1176.34 598.384 1168.49 598.183C1160.65 597.981 1139.92 593.153 1136.1 592.952C1132.28 592.751 1111.76 595.567 1109.34 599.993C1106.93 604.419 1101.7 613.674 1099.89 611.662C1098.08 609.65 1096.47 586.514 1090.84 588.928C1086.33 590.86 1062.8 612.802 1051.61 623.531C1037.12 636.876 1007.79 663.808 1006.34 664.774C1004.53 665.981 966.908 696.56 964.494 698.773C962.08 700.986 917.015 754.903 915.607 757.116C914.198 759.329 887.24 802.18 886.234 804.192C885.228 806.204 859.477 846.239 858.672 848.251C857.868 850.263 850.424 867.967 849.418 871.186C848.412 874.405 840.365 895.126 837.548 897.54C834.732 899.955 822.057 915.043 819.844 915.244C817.631 915.446 815.217 916.451 812.2 917.86C809.182 919.268 803.347 924.096 804.152 927.114C804.957 930.132 804.152 937.173 804.152 938.783C804.152 940.392 802.14 943.611 798.72 941.8C795.3 939.99 767.738 925.505 762.306 923.493C756.874 921.481 713.822 903.576 709.999 900.961C706.177 898.345 673.183 879.032 670.769 877.825C668.355 876.618 625.704 855.292 611.42 841.813C597.136 828.334 551.871 793.53 549.859 791.317C547.847 789.104 520.688 768.985 518.676 767.778C516.664 766.571 482.866 754.903 477.434 754.299C472.002 753.696 449.671 748.465 446.452 747.057C443.233 745.648 418.286 734.583 414.866 733.779C411.446 732.974 384.89 713.057 382.074 708.832C379.257 704.607 361.151 691.128 354.914 686.904C348.678 682.679 321.116 660.146 318.501 656.726C315.885 653.306 301.601 637.614 299.791 635.401C297.98 633.188 282.288 619.508 279.874 618.904C277.459 618.301 265.59 626.348 263.578 627.756C261.566 629.164 249.294 638.62 248.892 642.845C248.489 647.07 244.063 672.821 240.844 673.424C237.626 674.028 179.484 668.596 175.863 667.59C172.242 666.584 166.005 664.371 169.224 662.158C172.443 659.945 162.786 661.353 186.324 663.164C209.863 664.975 232.596 667.791 235.815 664.975C239.034 662.158 240.844 647.07 240.844 643.851C240.844 640.632 253.519 625.342 259.554 622.727C265.59 620.111 270.82 615.685 271.223 613.674C271.625 611.662 276.454 606.632 271.223 600.798C265.992 594.964 237.626 583.094 235.815 580.076C234.004 577.059 230.182 570.621 232.998 562.976C235.815 555.331 263.176 508.456 264.182 506.243C265.187 504.03 287.72 464.196 289.128 461.58C290.536 458.965 311.66 427.38 312.264 425.77C312.867 424.161 331.778 401.226 332.382 400.019C332.986 398.812 339.021 376.481 339.826 374.67C340.63 372.86 341.435 364.209 348.074 364.007C354.713 363.806 370.204 366.221 373.825 364.007C377.447 361.794 431.967 333.629 434.18 332.422C436.393 331.215 518.676 280.92 521.09 279.31C523.504 277.701 551.871 257.784 561.729 257.381C571.587 256.979 588.687 250.944 594.924 249.535C601.16 248.127 649.243 245.713 660.106 246.316C670.97 246.92 687.266 245.311 688.272 248.328C689.278 251.346 687.266 269.251 686.461 271.062C685.656 272.872 685.656 350.327 685.254 352.741C684.852 355.156 681.633 359.179 671.976 359.38C662.319 359.582 642.805 358.777 637.775 360.587C632.746 362.398 616.249 366.422 614.438 366.824C612.628 367.226 618.059 387.345 616.249 388.753C614.438 390.161 610.012 405.853 609.61 408.267C609.207 410.682 607.397 418.729 609.61 429.19C611.823 439.652 612.628 460.172 614.438 461.379C616.249 462.586 653.669 452.326 657.692 450.717C661.716 449.107 676 442.468 678.615 443.675C681.23 444.882 696.721 447.699 698.331 447.699C699.94 447.699 754.233 449.062 759.849 449.062C765.145 449.062 782.223 451.723 787.454 447.699C792.685 443.675 818.637 443.675 821.051 443.675C823.466 443.675 884.826 443.675 888.246 443.675C891.666 443.675 916.612 439.249 920.636 439.048C924.66 438.847 964.292 436.433 966.103 437.036C967.914 437.64 966.103 446.291 966.103 448.906C966.103 451.521 957.653 478.882 955.843 481.497C954.032 484.113 948.801 493.166 950.411 496.385C952.02 499.604 953.63 503.225 964.091 497.592C974.553 491.959 981.996 483.308 983.606 485.521C985.215 487.734 994.671 511.675 996.683 514.692C998.694 517.71 1005.33 538.029 1015.79 548.29C1026.26 558.55 1050 567.402 1051.61 568.207C1053.21 569.011 1072.33 574.644 1073.74 574.644C1075.14 574.644 1090.84 580.277 1090.84 581.887C1090.84 583.496 1097.47 591.745 1098.68 594.159C1099.89 596.573 1101.5 606.632 1102.5 604.822C1103.51 603.011 1117.39 594.159 1121.62 592.952C1125.84 591.745 1144.15 590.135 1154.41 592.952C1164.67 595.768 1179.15 597.177 1181.17 596.774C1183.18 596.372 1198.27 600.194 1199.88 601.401C1201.49 602.609 1220.6 611.662 1223.21 611.662C1225.83 611.662 1233.67 592.549 1234.68 588.928C1235.69 585.307 1240.92 567 1241.72 565.591C1242.53 564.183 1248.96 546.68 1249.97 544.87C1250.82 543.336 1255.57 533.289 1257.86 530.371C1258.36 529.726 1259.2 529.257 1259.41 528.464C1260.81 523.115 1256.9 502.695 1257.82 501.414C1258.82 500.006 1262.24 479.486 1263.05 478.279C1263.85 477.071 1266.47 468.219 1267.67 467.214C1268.88 466.208 1276.53 465.001 1277.73 467.214C1278.7 468.984 1284.98 473.316 1287.99 475.261" stroke="#16A34A" stroke-width="4" stroke-linecap="round" stroke-linejoin="round"/>
</svg>
